:FULLY-SPECIFIED
:FORCE-ALL-JOINTS-BE-3DOF
:DEGREES
136
root 7.84043 16.5355 -26.2787 -11.0153 8.8089 5.66325
lfemur -4.84588 13.0331 -21.9281
ltibia 35.2616 0 0
lfoot -17.6617 -11.0997 0
ltoes 29.8056 0 0
rfemur -101.096 -25.7571 60.6264
rtibia 86.2921 0 0
rfoot 2.91984 23.3227 0
rtoes -38.566 0 0
lowerback 17.3629 -3.00572 -9.21006
upperback 5.82269 -5.54625 -1.94613
thorax -2.74217 -2.79447 4.14897
lowerneck -12.6616 -0.493197 -0.234778
upperneck 0.579196 -0.762316 3.07427
head 2.40022 -0.272889 0.989966
lclavicle 4.45831e-14 7.73694e-16 0
lhumerus -41.7012 -21.5048 90.0793
lradius 53.9417 0 0
lwrist 18.0385 0 0
lhand 8.76682 6.42851 0
lfingers 7.12502 0 0
lthumb 33.9542 33.2086 0
rclavicle 4.45831e-14 7.73694e-16 0
rhumerus -43.65 -26.119 -56.8934
rradius 80.4063 0 0
rwrist -38.9033 0 0
rhand -15.9879 -24.3201 0
rfingers 7.12502 0 0
rthumb 10.2016 -53.7463 0
137
root 7.79871 16.5162 -26.2743 -10.6957 9.84263 5.44642
lfemur -5.55966 13.4573 -21.5755
ltibia 35.7768 0 0
lfoot -17.7659 -12.1763 0
ltoes 30.3181 0 0
rfemur -101.682 -25.6942 59.5485
rtibia 90.5601 0 0
rfoot 10.4824 23.2448 0
rtoes -31.9221 0 0
lowerback 17.3058 -3.35543 -9.11133
upperback 5.73204 -5.98933 -2.0221
thorax -2.77144 -3.00681 4.08648
lowerneck -12.5645 -0.608871 -0.421275
upperneck 0.474367 -0.897089 3.34452
head 2.35459 -0.333416 1.10226
lclavicle 5.28751e-14 -1.08608e-15 0
lhumerus -41.1809 -22.5563 90.1084
lradius 53.3802 0 0
lwrist 17.8817 0 0
lhand 9.68583 6.82227 0
lfingers 7.12502 0 0
lthumb 34.8257 33.3969 0
rclavicle 5.28751e-14 -1.08608e-15 0
rhumerus -44.4998 -26.7161 -57.5643
rradius 81.6749 0 0
rwrist -38.6202 0 0
rhand -22.2453 -26.9416 0
rfingers 7.12502 0 0
rthumb 4.16588 -56.5087 0
138
root 7.75395 16.4981 -26.2702 -10.3103 10.9424 5.18465
lfemur -6.36917 13.8802 -21.1906
ltibia 36.293 0 0
lfoot -17.8717 -13.2242 0
ltoes 30.6828 0 0
rfemur -102.129 -25.711 58.2925
rtibia 94.7812 0 0
rfoot 18.4846 22.3264 0
rtoes -22.8675 0 0
lowerback 17.1987 -3.71051 -8.97871
upperback 5.61319 -6.42989 -2.08041
thorax -2.80797 -3.21679 4.02066
lowerneck -12.4572 -0.745683 -0.595003
upperneck 0.390418 -1.06269 3.62364
head 2.31539 -0.408864 1.21361
lclavicle 5.421e-14 -2.84501e-15 0
lhumerus -40.5958 -23.6433 90.1664
lradius 52.721 0 0
lwrist 17.5632 0 0
lhand 10.718 7.26025 0
lfingers 7.12502 0 0
lthumb 35.8039 33.598 0
rclavicle 5.421e-14 -2.84501e-15 0
rhumerus -45.3968 -27.1337 -58.3095
rradius 82.8952 0 0
rwrist -37.6986 0 0
rhand -28.472 -30.354 0
rfingers 7.12502 0 0
rthumb -1.84162 -59.9756 0
139
root 7.70774 16.4815 -26.2666 -9.87727 12.0629 4.89443
lfemur -7.23981 14.2873 -20.7947
ltibia 36.7921 0 0
lfoot -17.9844 -14.1797 0
ltoes 30.8503 0 0
rfemur -102.416 -25.8094 56.9159
rtibia 98.8138 0 0
rfoot 26.1425 20.715 0
rtoes -12.0015 0 0
lowerback 17.0485 -4.05525 -8.82405
upperback 5.47223 -6.84986 -2.12157
thorax -2.84972 -3.41591 3.95461
lowerneck -12.3436 -0.897923 -0.74822
upperneck 0.32789 -1.25225 3.90034
head 2.28317 -0.496136 1.3194
lclavicle 5.05932e-14 -2.7575e-15 0
lhumerus -39.971 -24.7261 90.2497
lradius 51.9962 0 0
lwrist 17.0904 0 0
lhand 11.8286 7.72994 0
lfingers 7.12502 0 0
lthumb 36.8556 33.8063 0
rclavicle 5.05932e-14 -2.7575e-15 0
rhumerus -46.3096 -27.3589 -59.108
rradius 84.0263 0 0
rwrist -36.1887 0 0
rhand -34.3506 -34.5215 0
rfingers 7.12502 0 0
rthumb -7.51371 -64.1153 0
140
root 7.66167 16.4668 -26.2633 -9.4146 13.1586 4.59226
lfemur -8.13697 14.6639 -20.4093
ltibia 37.2564 0 0
lfoot -18.1099 -14.9792 0
ltoes 30.7715 0 0
rfemur -102.521 -25.991 55.4766
rtibia 102.516 0 0
rfoot 32.6723 18.5582 0
rtoes 0.076649 0 0
lowerback 16.8617 -4.37398 -8.65921
upperback 5.31522 -7.23116 -2.14612
thorax -2.89472 -3.59567 3.89144
lowerneck -12.2276 -1.05988 -0.873183
upperneck 0.287322 -1.4589 4.16333
head 2.25847 -0.592133 1.41501
lclavicle 4.40302e-14 9.22045e-16 0
lhumerus -39.3315 -25.7649 90.355
lradius 51.2379 0 0
lwrist 16.4706 0 0
lhand 12.9829 8.21885 0
lfingers 7.12502 0 0
lthumb 37.9477 34.0159 0
rclavicle 4.40302e-14 9.22045e-16 0
rhumerus -47.2068 -27.3789 -59.9389
rradius 85.0269 0 0
rwrist -34.1406 0 0
rhand -39.5638 -39.4082 0
rfingers 7.12502 0 0
rthumb -12.5432 -68.8962 0
141
root 7.61732 16.4543 -26.2603 -8.94031 14.1842 4.29462
lfemur -9.02603 14.9952 -20.056
ltibia 37.6681 0 0
lfoot -18.2535 -15.559 0
ltoes 30.3971 0 0
rfemur -102.423 -26.2576 54.0322
rtibia 105.747 0 0
rfoot 37.2901 16.0035 0
rtoes 12.7677 0 0
lowerback 16.645 -4.65099 -8.49605
upperback 5.14825 -7.55574 -2.15459
thorax -2.94093 -3.74757 3.83428
lowerneck -12.1128 -1.22585 -0.962151
upperneck 0.269253 -1.67575 4.40131
head 2.24186 -0.693758 1.49582
lclavicle 3.65267e-14 9.93923e-15 0
lhumerus -38.7025 -26.7199 90.479
lradius 50.4783 0 0
lwrist 15.7112 0 0
lhand 14.146 8.71447 0
lfingers 7.12502 0 0
lthumb 39.0472 34.221 0
rclavicle 3.65267e-14 9.93923e-15 0
rhumerus -48.0572 -27.1809 -60.781
rradius 85.8559 0 0
rwrist -31.6045 0 0
rhand -43.7941 -44.9784 0
rfingers 7.12502 0 0
rthumb -16.623 -74.2865 0
142
root 7.569 16.4468 -26.2551 -8.41756 15.0648 4.04484
lfemur -9.895 15.4383 -19.7755
ltibia 37.9487 0 0
lfoot -18.5829 -14.7953 0
ltoes 27.8925 0 0
rfemur -101.265 -26.8602 52.1142
rtibia 108.151 0 0
rfoot 36.238 17.284 0
rtoes 8.3121 0 0
lowerback 16.3379 -4.80241 -8.4129
upperback 4.97195 -7.72126 -2.1245
thorax -2.9534 -3.82406 3.82413
lowerneck -12.0052 -1.42962 -0.995407
upperneck 0.222656 -1.94632 4.55627
head 2.21857 -0.825329 1.53702
lclavicle 1.53821e-14 3.05305e-15 0
lhumerus -38.0816 -27.5726 90.7278
lradius 49.7585 0 0
lwrist 14.5672 0 0
lhand 15.5176 9.23808 0
lfingers 7.12502 0 0
lthumb 40.3349 34.3314 0
rclavicle 1.53821e-14 3.05305e-15 0
rhumerus -48.9411 -26.3244 -61.9379
rradius 86.5385 0 0
rwrist -28.1334 0 0
rhand -44.6023 -50.398 0
rfingers 7.12502 0 0
rthumb -17.4006 -89.985 0
